<svg width="294" height="105" viewBox="0 0 294 105" fill="none" xmlns="http://www.w3.org/2000/svg">
<g clip-path="url(#clip0_15_100)">
<path d="M76.9798 83.2665V87.7977H58.5253V83.2665H76.9798ZM86.8343 103.616H81.4791L96.9678 61.4341H102.241L117.729 103.616H112.374L99.7689 68.1074H99.4394L86.8343 103.616ZM88.8115 87.1386H110.397V91.6699H88.8115V87.1386ZM157.748 61.4341V103.616H152.805L129.819 70.4966H129.407V103.616H124.299V61.4341H129.243L152.311 94.6358H152.723V61.4341H157.748ZM191.038 71.9795C190.79 69.8924 189.788 68.2722 188.03 67.1187C186.273 65.9653 184.117 65.3886 181.563 65.3886C179.696 65.3886 178.062 65.6907 176.661 66.2949C175.274 66.899 174.19 67.7298 173.407 68.7871C172.638 69.8444 172.253 71.0458 172.253 72.3915C172.253 73.5174 172.521 74.4855 173.057 75.2956C173.606 76.092 174.306 76.7579 175.158 77.2935C176.009 77.8152 176.901 78.2478 177.835 78.591C178.769 78.9206 179.627 79.1883 180.41 79.3943L184.694 80.5477C185.792 80.8361 187.014 81.2343 188.36 81.7423C189.719 82.2504 191.017 82.9438 192.253 83.8226C193.502 84.6876 194.532 85.7999 195.342 87.1592C196.152 88.5186 196.557 90.1869 196.557 92.1642C196.557 94.4436 195.96 96.5032 194.766 98.3432C193.585 100.183 191.855 101.645 189.575 102.73C187.31 103.815 184.557 104.357 181.316 104.357C178.295 104.357 175.679 103.87 173.469 102.895C171.272 101.92 169.542 100.561 168.278 98.8169C167.029 97.0731 166.322 95.0477 166.157 92.7409H171.43C171.567 94.3337 172.102 95.6519 173.036 96.6955C173.984 97.7253 175.178 98.4942 176.62 99.0023C178.075 99.4966 179.641 99.7437 181.316 99.7437C183.266 99.7437 185.016 99.4279 186.568 98.7963C188.12 98.1509 189.349 97.2584 190.255 96.1187C191.161 94.9653 191.614 93.6197 191.614 92.0818C191.614 90.6812 191.223 89.5416 190.44 88.6628C189.658 87.784 188.628 87.07 187.351 86.5207C186.074 85.9715 184.694 85.4909 183.211 85.079L178.021 83.596C174.725 82.6486 172.116 81.2961 170.194 79.5385C168.271 77.7809 167.31 75.481 167.31 72.6386C167.31 70.2769 167.949 68.2172 169.226 66.4597C170.516 64.6883 172.247 63.3152 174.416 62.3403C176.599 61.3517 179.037 60.8574 181.728 60.8574C184.447 60.8574 186.863 61.3448 188.978 62.3197C191.092 63.2809 192.768 64.5991 194.003 66.2743C195.253 67.9495 195.912 69.8512 195.981 71.9795H191.038ZM210.064 61.4341V103.616H204.956V61.4341H210.064ZM249.141 74.6159C248.687 73.2291 248.09 71.9864 247.349 70.8879C246.621 69.7757 245.749 68.8283 244.733 68.0456C243.731 67.2629 242.591 66.6656 241.314 66.2537C240.037 65.8418 238.636 65.6358 237.112 65.6358C234.613 65.6358 232.341 66.2812 230.295 67.5719C228.249 68.8626 226.622 70.7643 225.413 73.2771C224.205 75.7899 223.601 78.8725 223.601 82.525C223.601 86.1775 224.212 89.2601 225.434 91.7729C226.656 94.2856 228.311 96.1874 230.398 97.4781C232.485 98.7688 234.833 99.4142 237.442 99.4142C239.858 99.4142 241.987 98.8993 243.827 97.8695C245.68 96.8259 247.122 95.3567 248.152 93.4618C249.195 91.5532 249.717 89.3081 249.717 86.7267L251.283 87.0562H238.595V82.525H254.66V87.0562C254.66 90.5302 253.919 93.551 252.436 96.1187C250.967 98.6865 248.935 100.677 246.339 102.092C243.758 103.492 240.792 104.193 237.442 104.193C233.707 104.193 230.425 103.314 227.597 101.556C224.782 99.7987 222.585 97.2996 221.006 94.0591C219.44 90.8186 218.658 86.9739 218.658 82.525C218.658 79.1883 219.104 76.1881 219.996 73.5243C220.903 70.8467 222.18 68.5674 223.827 66.6862C225.475 64.8051 227.425 63.3633 229.677 62.3609C231.929 61.3586 234.407 60.8574 237.112 60.8574C239.337 60.8574 241.41 61.1938 243.332 61.8666C245.268 62.5257 246.992 63.4663 248.502 64.6883C250.026 65.8967 251.296 67.3453 252.312 69.0342C253.329 70.7094 254.029 72.57 254.413 74.6159H249.141ZM259.346 65.9653V61.4341H290.983V65.9653H277.718V103.616H272.61V65.9653H259.346Z" fill="black"/>
<circle cx="14" cy="14" r="11.5" transform="matrix(-0.943517 -0.331324 -0.331324 0.943517 68.062 8.33069)" stroke="black" stroke-width="5"/>
<circle cx="18.2143" cy="17.0196" r="11.5" transform="rotate(-19.7723 18.2143 17.0196)" stroke="black" stroke-width="5"/>
<path fill-rule="evenodd" clip-rule="evenodd" d="M48.3004 29.1102L49.16 26.7627L44.4649 25.0434L43.6053 27.391L15.4978 104.151L20.8297 104.131L48.3004 29.1102Z" fill="black"/>
<path fill-rule="evenodd" clip-rule="evenodd" d="M19.2488 29.2175L18.3719 26.8763L23.0542 25.1225L23.9311 27.4636L52.6048 104.014L47.2729 104.034L19.2488 29.2175Z" fill="black"/>
<path fill-rule="evenodd" clip-rule="evenodd" d="M33.6764 88.0837L26.0976 88.1117L23.5977 88.1209L23.6161 93.1209L26.1161 93.1116L35.3169 93.0777L33.6764 88.0837Z" fill="black"/>
</g>
<defs>
<clipPath id="clip0_15_100">
<rect width="294" height="105" fill="white"/>
</clipPath>
</defs>
</svg>
